<svg xmlns="http://www.w3.org/2000/svg" version="1.1" xmlns:xlink="http://www.w3.org/1999/xlink" width="1187.8978991029333" height="200" viewBox="0.13902437686920166 10.391096115112305 178.86924743652344 21.79890251159668"><path d="M7.50 10.86L7.50 10.86Q8.09 10.72 8.20 10.91Q8.32 11.09 8.44 11.64Q8.55 12.19 8.44 12.55Q8.32 12.91 8.13 13.39Q7.95 13.87 8.25 13.89Q8.55 13.91 10.63 13.26Q12.70 12.62 13.36 12.64Q14.02 12.66 14.53 13.08Q15.04 13.50 15.27 13.77Q15.51 14.04 15.38 14.67Q15.25 15.29 14.82 15.93Q14.39 16.56 13.81 16.82Q13.22 17.07 12.05 17.71Q10.88 18.34 8.77 18.99Q6.66 19.65 10.16 18.14Q13.65 16.64 14.11 15.94Q14.57 15.23 14.26 14.95Q13.95 14.67 13.09 14.81Q12.23 14.96 10.93 15.18Q9.63 15.39 8.51 15.79Q7.38 16.19 7.01 16.72Q6.64 17.25 6.26 17.98Q5.88 18.71 5.56 19.61Q5.23 20.51 5.22 20.75Q5.21 21.00 5.82 20.75Q6.43 20.51 8.58 20.20Q10.74 19.88 12.76 19.84Q14.79 19.80 14.73 19.92Q14.67 20.04 13.62 20.21Q12.58 20.39 11.24 20.76Q9.90 21.13 8.64 21.63Q7.38 22.13 6.50 22.59Q5.63 23.05 5.02 23.21Q4.41 23.38 3.83 26.03Q3.24 28.67 2.97 29.45Q2.70 30.23 2.56 30.85Q2.42 31.46 2.19 31.75Q1.95 32.03 1.66 32.15Q1.37 32.27 1.03 32.01Q0.68 31.76 0.83 30.96Q0.98 30.16 1.09 29.22Q1.21 28.28 1.48 26.80Q1.76 25.31 1.94 24.52Q2.13 23.73 1.51 23.81Q0.90 23.89 0.51 23.58Q0.12 23.28 0.14 22.92Q0.16 22.56 0.89 22.41Q1.62 22.27 2.11 21.91Q2.60 21.56 3.51 19.18Q4.41 16.80 4.88 15.43Q5.35 14.06 5.97 12.77Q6.58 11.48 6.75 11.24Q6.91 11.00 7.50 10.86ZM18.03 21.66L18.03 21.66Q18.48 21.54 19.01 21.62Q19.55 21.70 19.87 21.95Q20.20 22.21 20.49 22.95Q20.78 23.69 20.22 23.95Q19.67 24.20 19.22 23.77Q18.77 23.34 18.28 23.59Q17.79 23.85 17.31 24.11Q16.84 24.38 16.13 24.94Q15.43 25.51 14.69 26.39Q13.95 27.27 13.87 27.51Q13.79 27.75 14.25 27.44Q14.71 27.13 15.65 26.49Q16.60 25.86 18.04 25.20Q19.47 24.53 19.85 24.68Q20.23 24.82 20.51 25.21Q20.78 25.61 20.82 25.89Q20.86 26.17 20.73 26.34Q20.61 26.50 20.44 27.09Q20.27 27.68 20.47 28.22Q20.66 28.77 20.97 28.97Q21.27 29.18 21.80 29.09Q22.32 29.00 23.10 28.29Q23.87 27.58 23.03 28.62Q22.19 29.67 21.70 29.95Q21.21 30.23 20.94 30.22Q20.66 30.21 20.22 30.05Q19.79 29.88 19.39 29.53Q19.00 29.18 18.78 28.67Q18.55 28.16 18.48 27.92Q18.40 27.68 18.12 27.38Q17.83 27.09 17.42 27.26Q17.01 27.42 15.99 28.16Q14.96 28.91 14.07 29.38Q13.18 29.86 12.48 30.05Q11.78 30.23 11.57 30.18Q11.37 30.12 11.12 29.74Q10.88 29.36 10.84 28.91Q10.80 28.46 10.97 28.00Q11.13 27.54 12.22 26.16Q13.30 24.79 14.31 23.91Q15.31 23.03 16.45 22.41Q17.58 21.80 18.03 21.66ZM27.17 17.36L27.17 17.36Q27.40 17.09 27.91 17.13Q28.42 17.17 28.65 17.44Q28.89 17.71 29.04 18.11Q29.20 18.50 28.98 18.93Q28.77 19.36 28.57 20.05Q28.38 20.74 28.07 21.99Q27.75 23.24 28.11 23.40Q28.46 23.55 29.32 23.71Q30.18 23.87 32.06 23.83Q33.95 23.79 31.86 24.10Q29.77 24.41 28.76 24.67Q27.75 24.92 27.43 25.03Q27.11 25.14 26.34 27.20Q25.57 29.26 25.32 29.94Q25.08 30.63 24.80 30.86Q24.53 31.09 24.10 31.21Q23.67 31.33 23.32 31.17Q22.97 31.02 23.33 29.90Q23.69 28.79 24.32 27.27Q24.94 25.74 25 25.37Q25.06 25 24.49 25.10Q23.93 25.20 23.49 25.21Q23.05 25.21 23.06 24.66Q23.07 24.10 23.77 23.75Q24.47 23.40 25.02 23.39Q25.57 23.38 26.00 21.87Q26.43 20.35 26.50 19.85Q26.58 19.36 26.76 18.50Q26.93 17.64 27.17 17.36ZM35.80 15.55L35.80 15.55Q36.23 15.90 36.32 17.08Q36.41 18.26 37.13 19.38Q37.85 20.51 38.83 21.17Q39.80 21.84 40.62 22.11Q41.43 22.38 40.57 22.24Q39.71 22.09 38.86 21.55Q38.01 21.02 37.03 19.95Q36.05 18.89 35.61 18.39Q35.16 17.89 34.97 17.83Q34.79 17.77 34.66 17.74Q34.53 17.71 34.07 17.35Q33.61 16.99 33.74 16.46Q33.87 15.94 34.08 15.68Q34.30 15.43 34.83 15.30Q35.37 15.18 35.80 15.55ZM32.68 21.46L32.68 21.46Q33.11 21.37 33.66 21.52Q34.22 21.68 33.86 22.66Q33.50 23.63 33.07 25.20Q32.64 26.76 32.26 27.73Q31.88 28.71 31.41 29.42Q30.94 30.14 30.51 30.20Q30.08 30.25 29.91 30.17Q29.75 30.08 29.88 29.26Q30.02 28.44 30.46 26.75Q30.90 25.06 31.29 23.81Q31.68 22.56 31.30 22.53Q30.92 22.50 31.59 22.03Q32.27 21.56 32.68 21.46ZM37.32 22.01L37.32 22.01Q38.07 21.00 38.54 21.04Q39.00 21.07 39.14 21.43Q39.28 21.78 39.38 22.08Q39.47 22.38 39.57 22.96Q39.67 23.54 38.78 25.20Q37.89 26.86 38.91 25.62Q39.92 24.38 40.64 24.07Q41.37 23.77 41.97 24.07Q42.58 24.38 42.73 24.80Q42.89 25.23 42.93 25.78Q42.97 26.33 43.09 26.41Q43.20 26.48 44.38 25.23Q45.55 23.98 46.44 23.58Q47.32 23.18 47.91 23.42Q48.50 23.65 48.94 24.34Q49.38 25.02 50.08 26.33Q50.78 27.64 51.53 28.25Q52.29 28.87 52.87 28.98Q53.46 29.10 54.90 28.35Q56.35 27.60 55.55 28.07Q54.75 28.54 53.94 28.88Q53.13 29.22 52.79 29.40Q52.46 29.59 51.88 29.73Q51.31 29.86 50.80 29.61Q50.29 29.36 49.82 28.96Q49.36 28.55 48.65 27.63Q47.95 26.70 47.65 26.25Q47.34 25.80 46.89 25.88Q46.45 25.96 45.96 26.38Q45.47 26.80 44.62 27.58Q43.77 28.36 43.29 29.22Q42.81 30.08 42.71 30.32Q42.62 30.57 42.21 31.01Q41.80 31.45 41.43 31.34Q41.05 31.23 40.89 30.95Q40.72 30.66 40.86 29.94Q41.00 29.22 41.08 28.55Q41.17 27.89 41.22 27.11Q41.27 26.33 40.76 26.28Q40.25 26.23 39.07 27.39Q37.89 28.55 37.58 29.20Q37.27 29.84 37.08 30.12Q36.89 30.39 36.69 30.55Q36.48 30.70 35.87 30.51Q35.25 30.31 35.18 30Q35.10 29.69 35.47 28.73Q35.84 27.77 36.45 25.78Q37.05 23.79 37.29 23.26Q37.52 22.73 34.03 25.18Q30.55 27.62 32.08 26.37Q33.61 25.12 35.10 24.07Q36.58 23.03 37.32 22.01ZM59.34 21.66L59.34 21.66Q59.79 21.54 60.32 21.62Q60.86 21.70 61.18 21.95Q61.50 22.21 61.80 22.95Q62.09 23.69 61.53 23.95Q60.98 24.20 60.53 23.77Q60.08 23.34 59.59 23.59Q59.10 23.85 58.62 24.11Q58.14 24.38 57.44 24.94Q56.74 25.51 56.00 26.39Q55.25 27.27 55.18 27.51Q55.10 27.75 55.56 27.44Q56.02 27.13 56.96 26.49Q57.91 25.86 59.35 25.20Q60.78 24.53 61.16 24.68Q61.54 24.82 61.82 25.21Q62.09 25.61 62.13 25.89Q62.17 26.17 62.04 26.34Q61.91 26.50 61.75 27.09Q61.58 27.68 61.78 28.22Q61.97 28.77 62.28 28.97Q62.58 29.18 63.11 29.09Q63.63 29.00 64.40 28.29Q65.18 27.58 64.34 28.62Q63.50 29.67 63.01 29.95Q62.52 30.23 62.25 30.22Q61.97 30.21 61.53 30.05Q61.09 29.88 60.70 29.53Q60.31 29.18 60.09 28.67Q59.86 28.16 59.79 27.92Q59.71 27.68 59.42 27.38Q59.14 27.09 58.73 27.26Q58.32 27.42 57.29 28.16Q56.27 28.91 55.38 29.38Q54.49 29.86 53.79 30.05Q53.09 30.23 52.88 30.18Q52.68 30.12 52.43 29.74Q52.19 29.36 52.15 28.91Q52.11 28.46 52.28 28.00Q52.44 27.54 53.53 26.16Q54.61 24.79 55.62 23.91Q56.62 23.03 57.75 22.41Q58.89 21.80 59.34 21.66ZM70.66 10.47L70.66 10.47Q71.68 10.23 72.32 10.72Q72.97 11.21 72.07 12.44Q71.17 13.67 69.55 17.63Q67.93 21.58 67.44 23.24Q66.95 24.90 67.36 24.45Q67.77 24.00 68.17 23.64Q68.57 23.28 69.06 22.90Q69.55 22.52 69.95 22.34Q70.35 22.17 70.84 22.08Q71.33 21.99 71.73 22.22Q72.13 22.44 72.35 22.79Q72.58 23.14 72.63 24.06Q72.68 24.98 72.52 25.99Q72.36 26.99 72.50 27.50Q72.64 28.01 73.00 28.40Q73.36 28.79 74.24 28.58Q75.12 28.38 75.61 27.86Q76.09 27.34 75.83 27.93Q75.57 28.52 75.05 28.97Q74.53 29.43 73.79 29.78Q73.05 30.12 72.58 30.13Q72.11 30.14 71.62 29.74Q71.13 29.34 70.96 28.58Q70.78 27.83 70.88 26.25Q70.98 24.67 70.65 24.37Q70.33 24.06 68.99 25.06Q67.66 26.05 66.97 27.30Q66.29 28.55 65.96 29.42Q65.63 30.29 65.14 30.16Q64.65 30.02 64.38 29.71Q64.10 29.39 64.10 28.82Q64.10 28.24 65.27 24.36Q66.45 20.47 67.95 16.76Q69.45 13.05 69.71 12.25Q69.96 11.45 70.66 10.47ZM94.24 14.39L94.24 14.39Q95.14 13.48 95.45 13.55Q95.76 13.63 96.04 13.87Q96.31 14.10 96.35 14.41Q96.39 14.73 96.40 15.45Q96.41 16.17 96.52 16.45Q96.64 16.72 96.88 18.20Q97.11 19.69 97.13 20.01Q97.15 20.33 97.30 20.98Q97.46 21.62 98.97 21.29Q100.49 20.96 101.96 20.55Q103.44 20.14 104.14 19.91Q104.84 19.69 102.66 20.60Q100.47 21.50 99.61 22.03Q98.75 22.56 98.06 23.09Q97.36 23.61 97.35 24.35Q97.34 25.08 97.19 26.37Q97.03 27.66 96.88 28.63Q96.72 29.61 96.64 30.23Q96.56 30.86 96.21 31.45Q95.86 32.03 95.43 32.11Q95 32.19 94.73 31.84Q94.45 31.48 94.65 30.11Q94.84 28.73 95.04 27.65Q95.23 26.56 95.41 25.29Q95.59 24.02 94.59 24.16Q93.59 24.30 92.50 24.45Q91.41 24.61 90.31 24.75Q89.22 24.88 88.49 25.24Q87.75 25.61 85.91 28.12Q84.06 30.63 83.50 31.41Q82.93 32.19 82.48 32.19Q82.03 32.19 81.84 31.85Q81.64 31.50 81.83 30.84Q82.01 30.18 83.19 28.37Q84.38 26.56 85.94 24.65Q87.50 22.73 88.54 21.55Q89.57 20.37 90.40 19.23Q91.23 18.09 92.29 16.70Q93.34 15.31 94.24 14.39ZM94.98 18.46L94.98 18.46Q94.79 17.09 94.23 17.78Q93.67 18.48 93.20 19.11Q92.73 19.75 91.29 21.34Q89.84 22.93 91.04 22.65Q92.23 22.36 93.92 22.19Q95.61 22.01 95.55 21.46Q95.49 20.92 95.34 20.37Q95.20 19.82 94.98 18.46ZM106.80 21.78L106.80 21.78Q107.11 21.74 107.69 21.94Q108.26 22.15 108.40 22.33Q108.54 22.52 108.54 22.81Q108.55 23.11 108.52 23.54Q108.48 23.98 108.18 24.52Q107.89 25.06 106.88 25.95Q105.88 26.84 105.17 27.53Q104.45 28.22 104.13 28.58Q103.81 28.95 103.20 29.38Q102.60 29.82 103.18 29.85Q103.77 29.88 105.01 30.14Q106.25 30.39 107.22 30.58Q108.18 30.76 108.80 30.66Q109.41 30.57 110.77 30.29Q112.13 30.02 111.07 30.27Q110.02 30.53 109.17 30.80Q108.32 31.07 107.82 31.28Q107.32 31.48 106.88 31.70Q106.43 31.91 105.58 31.90Q104.73 31.89 104.17 31.73Q103.61 31.56 102.63 31.48Q101.64 31.41 101.25 31.44Q100.86 31.46 100.62 31.65Q100.37 31.84 100.02 31.85Q99.67 31.86 99.45 31.78Q99.24 31.70 99.08 31.48Q98.93 31.27 99.01 30.73Q99.10 30.20 99.34 30Q99.57 29.80 99.99 29.60Q100.41 29.39 101.57 28.40Q102.73 27.40 103.43 26.74Q104.12 26.07 104.94 25.37Q105.76 24.67 106.08 24.29Q106.41 23.91 105.81 23.98Q105.21 24.06 104.06 24.51Q102.91 24.96 102.62 25.30Q102.32 25.64 102.06 25.58Q101.80 25.51 101.67 25.24Q101.54 24.98 101.63 24.47Q101.72 23.96 102.46 23.46Q103.20 22.95 104.14 22.56Q105.08 22.17 105.79 21.98Q106.50 21.80 106.80 21.78ZM115.61 22.93L115.61 22.93Q115.86 22.83 117.22 23.14Q118.57 23.46 119.50 23.46Q120.43 23.46 120.77 23.64Q121.11 23.83 121.30 23.79Q121.48 23.75 121.41 23.86Q121.33 23.96 120.81 24.19Q120.29 24.41 120.14 24.35Q119.98 24.28 119.76 24.42Q119.53 24.57 119.38 24.49Q119.24 24.41 119.01 24.57Q118.79 24.73 117.85 24.73Q116.91 24.73 115.98 24.90Q115.04 25.08 114.59 25.22Q114.14 25.37 113.98 25.33Q113.83 25.29 112.80 25.50Q111.78 25.70 110.96 26.01Q110.14 26.31 109.83 25.97Q109.53 25.63 109.06 25.31Q108.59 25 109.14 24.57Q109.69 24.14 110.44 23.69Q111.19 23.24 112.47 23.12Q113.75 22.99 114.32 23.02Q114.88 23.05 115.13 23.03Q115.37 23.01 115.61 22.93ZM126.05 13.42L126.05 13.42Q126.91 13.34 127.71 13.38Q128.50 13.42 130.50 13.96Q132.50 14.49 133.09 14.76Q133.67 15.02 134.38 15.45Q135.10 15.88 135.27 16.21Q135.45 16.54 135.49 16.89Q135.53 17.25 135.15 18.67Q134.77 20.10 132.82 22.24Q130.88 24.38 128.76 26.07Q126.64 27.77 128.15 28.11Q129.67 28.44 131.66 28.89Q133.65 29.34 135.58 30.27Q137.50 31.21 137.56 31.47Q137.62 31.74 137.39 31.91Q137.17 32.09 136.50 32.14Q135.84 32.19 135.09 32.10Q134.34 32.01 133.75 31.75Q133.16 31.48 131.43 31.04Q129.69 30.59 128.67 30.45Q127.66 30.31 126.61 30.12Q125.57 29.92 124.54 30.23Q123.52 30.55 122.98 30.39Q122.44 30.23 122.44 29.98Q122.44 29.73 122.16 29.62Q121.88 29.51 122.23 29.02Q122.58 28.54 126.14 25.38Q129.71 22.23 130.82 20.80Q131.93 19.38 132.57 18.24Q133.20 17.11 131.45 16.58Q129.69 16.05 129.02 15.88Q128.36 15.70 127.12 15.63Q125.88 15.57 125.25 15.78Q124.63 16.00 124.33 15.99Q124.02 15.98 123.75 15.72Q123.48 15.47 123.19 15.47Q122.91 15.47 122.95 14.98Q122.99 14.49 123.17 14.23Q123.36 13.96 123.71 13.87Q124.06 13.77 124.64 13.63Q125.21 13.50 126.05 13.42ZM141.89 21.66L141.89 21.66Q142.34 21.54 142.88 21.62Q143.42 21.70 143.74 21.95Q144.06 22.21 144.36 22.95Q144.65 23.69 144.09 23.95Q143.54 24.20 143.09 23.77Q142.64 23.34 142.15 23.59Q141.66 23.85 141.18 24.11Q140.70 24.38 140 24.94Q139.30 25.51 138.55 26.39Q137.81 27.27 137.73 27.51Q137.66 27.75 138.12 27.44Q138.57 27.13 139.52 26.49Q140.47 25.86 141.90 25.20Q143.34 24.53 143.72 24.68Q144.10 24.82 144.38 25.21Q144.65 25.61 144.69 25.89Q144.73 26.17 144.60 26.34Q144.47 26.50 144.31 27.09Q144.14 27.68 144.34 28.22Q144.53 28.77 144.83 28.97Q145.14 29.18 145.66 29.09Q146.19 29.00 146.96 28.29Q147.73 27.58 146.89 28.62Q146.05 29.67 145.57 29.95Q145.08 30.23 144.80 30.22Q144.53 30.21 144.09 30.05Q143.65 29.88 143.26 29.53Q142.87 29.18 142.65 28.67Q142.42 28.16 142.34 27.92Q142.27 27.68 141.98 27.38Q141.70 27.09 141.29 27.26Q140.88 27.42 139.85 28.16Q138.83 28.91 137.94 29.38Q137.05 29.86 136.35 30.05Q135.64 30.23 135.44 30.18Q135.23 30.12 134.99 29.74Q134.75 29.36 134.71 28.91Q134.67 28.46 134.83 28.00Q135 27.54 136.08 26.16Q137.17 24.79 138.17 23.91Q139.18 23.03 140.31 22.41Q141.45 21.80 141.89 21.66ZM153.22 10.47L153.22 10.47Q154.24 10.23 154.88 10.72Q155.53 11.21 154.63 12.44Q153.73 13.67 152.11 17.63Q150.49 21.58 150 23.24Q149.51 24.90 149.92 24.45Q150.33 24.00 150.73 23.64Q151.13 23.28 151.62 22.90Q152.11 22.52 152.51 22.34Q152.91 22.17 153.40 22.08Q153.89 21.99 154.29 22.22Q154.69 22.44 154.91 22.79Q155.14 23.14 155.19 24.06Q155.23 24.98 155.08 25.99Q154.92 26.99 155.06 27.50Q155.20 28.01 155.56 28.40Q155.92 28.79 156.80 28.58Q157.68 28.38 158.16 27.86Q158.65 27.34 158.39 27.93Q158.13 28.52 157.61 28.97Q157.09 29.43 156.35 29.78Q155.61 30.12 155.14 30.13Q154.67 30.14 154.18 29.74Q153.69 29.34 153.52 28.58Q153.34 27.83 153.44 26.25Q153.54 24.67 153.21 24.37Q152.89 24.06 151.55 25.06Q150.21 26.05 149.53 27.30Q148.85 28.55 148.52 29.42Q148.18 30.29 147.70 30.16Q147.21 30.02 146.93 29.71Q146.66 29.39 146.66 28.82Q146.66 28.24 147.83 24.36Q149.00 20.47 150.51 16.76Q152.01 13.05 152.27 12.25Q152.52 11.45 153.22 10.47ZM159.49 24.30L159.49 24.30Q160.20 21.58 160.85 21.64Q161.50 21.70 161.84 22.23Q162.17 22.75 161.77 23.53Q161.37 24.30 161.69 24.25Q162.01 24.20 162.54 23.86Q163.07 23.52 163.54 23.31Q164.02 23.11 164.32 23.05Q164.61 22.99 165.44 23.24Q166.27 23.50 167.01 23.96Q167.75 24.41 168.97 24.03Q170.20 23.65 168.71 24.29Q167.23 24.92 165.67 24.88Q164.12 24.84 163.27 25.25Q162.42 25.66 161.84 26.16Q161.25 26.66 160.75 27.80Q160.25 28.95 159.99 29.73Q159.73 30.51 159.52 31.01Q159.32 31.50 158.68 31.53Q158.05 31.56 157.84 31.07Q157.64 30.59 157.74 30.44Q157.85 30.29 158.33 28.65Q158.81 27.01 159.49 24.30ZM173.57 21.66L173.57 21.66Q174.02 21.54 174.56 21.62Q175.10 21.70 175.42 21.95Q175.74 22.21 176.04 22.95Q176.33 23.69 175.77 23.95Q175.21 24.20 174.77 23.77Q174.32 23.34 173.83 23.59Q173.34 23.85 172.86 24.11Q172.38 24.38 171.68 24.94Q170.98 25.51 170.23 26.39Q169.49 27.27 169.41 27.51Q169.34 27.75 169.79 27.44Q170.25 27.13 171.20 26.49Q172.15 25.86 173.58 25.20Q175.02 24.53 175.40 24.68Q175.78 24.82 176.05 25.21Q176.33 25.61 176.37 25.89Q176.41 26.17 176.28 26.34Q176.15 26.50 175.99 27.09Q175.82 27.68 176.02 28.22Q176.21 28.77 176.51 28.97Q176.82 29.18 177.34 29.09Q177.87 29.00 178.64 28.29Q179.41 27.58 178.57 28.62Q177.73 29.67 177.25 29.95Q176.76 30.23 176.48 30.22Q176.21 30.21 175.77 30.05Q175.33 29.88 174.94 29.53Q174.55 29.18 174.33 28.67Q174.10 28.16 174.02 27.92Q173.95 27.68 173.66 27.38Q173.38 27.09 172.97 27.26Q172.56 27.42 171.53 28.16Q170.51 28.91 169.62 29.38Q168.73 29.86 168.03 30.05Q167.32 30.23 167.12 30.18Q166.91 30.12 166.67 29.74Q166.43 29.36 166.39 28.91Q166.35 28.46 166.51 28.00Q166.68 27.54 167.76 26.16Q168.85 24.79 169.85 23.91Q170.86 23.03 171.99 22.41Q173.13 21.80 173.57 21.66Z" fill="black"></path></svg>