<svg xmlns="http://www.w3.org/2000/svg" version="1.1" xmlns:xlink="http://www.w3.org/1999/xlink" width="632.6747866850466" height="200" viewBox="-0.010639452375471592 12.84000015258789 147.74658203125 39.86656188964844"><path d="M4.08 28.36C3.52 28.28 3 28.52 2.96 28.88C2.92 29.16 3 29.48 3.04 29.76C3.04 29.84 3.12 29.96 3.20 30C3.64 30.32 4.08 30.60 4.48 30.88C4.68 31.04 4.68 31.24 4.56 31.44C3.56 33.16 2.60 34.84 1.56 36.52C1 37.40 0.32 38.20 0 39.20C-0.04 39.36 0.04 39.60 0.12 39.76C0.24 39.96 0.80 40.08 0.96 39.96C1.32 39.72 1.68 39.48 1.92 39.16C3.16 37.28 4.40 35.36 5.60 33.44C5.84 33.08 6 32.72 6.24 32.36C6.72 31.52 7.44 30.96 8.44 30.80C9.24 30.72 10.08 30.56 10.88 30.40C11.48 30.32 12.16 30.88 12.20 31.44C12.32 32.92 12.20 34.36 11.76 35.76C11.60 36.20 11.32 36.44 10.96 36.64C10.88 36.68 10.80 36.76 10.76 36.88C10.72 36.96 10.72 37.08 10.76 37.16C10.92 37.56 11.12 37.92 11.52 38.12C11.84 38.32 12.48 38.08 12.56 37.76C12.96 36.24 13.08 34.68 13.36 33.16C13.48 32.44 13.64 31.76 13.84 31.08C13.96 30.68 14.28 30.36 14.68 30.16C15.40 29.80 16.20 29.52 17.04 29.44C17.76 29.40 18.48 29.28 19.16 29.16C19.36 29.12 19.52 28.96 19.64 28.80C19.76 28.64 19.60 28.56 19.32 28.56C18.08 28.52 16.84 28.52 15.60 28.52C14.36 28.48 13.92 28 14 26.76C14 26.44 14 26.12 14.08 25.84C14.56 24 14.52 22.16 14.60 20.28C14.68 18.60 15.08 17 15.76 15.48C15.88 15.20 16 14.92 16.08 14.64C16.12 14.44 16.12 14.20 16.04 14.04C15.64 13.36 15.04 12.96 14.24 13C14.08 13 13.80 13.12 13.76 13.24C13.48 13.80 13.24 14.40 13.12 15C12.88 16.36 12.40 17.56 11.72 18.76C10.20 21.48 8.68 24.20 7.16 26.88C6.84 27.40 6.44 27.88 6 28.36C5.80 28.60 5.52 28.72 5.16 28.64C4.76 28.56 4.36 28.44 4.08 28.36ZM12.88 24.40C12.84 25.56 12.80 26.40 12.72 27.20C12.64 28.44 11.96 29 10.68 29.04C10.16 29.08 9.64 28.96 9.16 28.88C8.92 28.84 8.80 28.64 8.84 28.40C8.88 28.12 8.88 27.76 9.04 27.52C9.96 25.92 10.88 24.28 11.84 22.68C12 22.44 12.28 22.28 12.52 22.08C12.88 22.36 12.84 22.80 12.88 23.20C12.92 23.68 12.88 24.20 12.88 24.40ZM23.64 30.40C23.56 30.36 23.48 30.36 23.36 30.36C23.12 30.36 22.80 30.44 22.68 30.60C22.04 31.36 21.56 31.96 21.24 32.56C20.60 33.64 19.96 34.80 19.36 35.88C18.80 36.84 18.24 37.88 17.68 38.88C17.60 39.04 17.40 39.16 17.24 39.32C17.20 39.32 17.16 39.36 17.12 39.40C17.12 39.36 17.08 39.32 17.08 39.32C17 39.12 16.92 38.92 16.84 38.72C16.28 37.20 16.72 35.80 17.48 34.20C17.96 33.20 18.44 32.20 18.96 31.20C19.40 30.32 19.88 29.40 20.28 28.52C21.96 25.08 22.88 21.16 23.12 16.60L23.12 16.60C23.12 16.36 23.12 16.12 23.12 15.88C23.16 15.32 23.16 14.72 23.08 14.16C23.04 13.76 22.68 13.12 22.28 13.08C22.24 13.08 22.24 13.04 22.20 13.04C21.84 13.04 21.32 13.44 21.12 13.76C20.68 14.44 20.32 15.20 20.04 15.96C18.20 21.52 16.92 26.52 16.12 31.24C15.80 33.16 15.36 35.16 13.84 36.72C13.44 37.16 13.28 37.52 13.36 37.84C13.48 38.16 13.80 38.36 14.40 38.48C15.12 38.60 15.48 38.92 15.56 39.56C15.60 39.68 15.60 39.80 15.60 39.92C15.64 40.48 15.72 41.20 16.52 41.20C16.52 41.20 16.56 41.20 16.56 41.20C17.16 41.16 17.76 40.68 18.32 40.24C18.36 40.20 18.40 40.16 18.44 40.12C18.68 39.92 18.84 39.60 19 39.32C19.04 39.20 19.08 39.08 19.16 38.96C19.32 38.68 19.48 38.40 19.64 38.12C19.96 37.52 20.32 36.92 20.64 36.32C20.68 36.28 20.76 36.24 20.84 36.24C20.88 36.24 20.88 36.24 20.88 36.24C20.92 36.24 21 36.32 21 36.36C21.04 36.52 21.08 36.72 21.08 36.92C21.12 37.16 21.12 37.40 21.16 37.64C21.32 38.36 21.48 39.08 21.76 39.76C21.84 39.96 22.08 40.04 22.32 40.08C22.40 40.12 22.52 40.12 22.56 40.16L22.76 40.24L22.80 40.04C22.80 39.96 22.84 39.88 22.88 39.80C22.96 39.60 23.04 39.36 22.92 39.16C21.96 37.72 22.44 36.36 22.92 34.88C23 34.68 23.08 34.48 23.16 34.28C23.48 33.28 23.76 32.32 24 31.32C24.08 31.04 23.88 30.56 23.64 30.40ZM17.92 29.68C18 29.32 18.04 28.96 18.12 28.60C18.28 27.60 18.48 26.60 18.76 25.64C19.52 22.92 20.40 20.20 21.24 17.56L21.32 17.32C21.36 17.16 21.52 17 21.68 16.84C21.68 16.80 21.68 16.80 21.68 16.80C21.72 16.96 21.76 17.16 21.80 17.32L21.80 17.60C21.80 17.60 21.80 17.60 21.80 17.64C21.60 21.32 20.64 24.88 18.76 28.84C18.60 29.16 18.44 29.48 18.24 29.72C18.20 29.76 18.08 29.80 18 29.84C18 29.84 17.96 29.84 17.96 29.84C17.96 29.80 17.92 29.72 17.92 29.68ZM39.76 38.44C39.96 38.88 40.08 39.92 40.60 40.12C41.12 40.36 42.04 39.88 42.72 39.60C43.12 39.44 43.44 39.08 43.76 38.80C44.68 37.88 45.60 36.92 46.56 36.04C47.24 35.48 48.04 35 48.76 34.48C48.68 35.32 48.60 36.16 48.48 37C48.28 38 48.04 38.96 48.80 39.76C48.96 39.96 49.36 40.08 49.68 40.08C49.80 40.08 50.08 39.68 50.04 39.52C49.48 37.28 50.52 35.40 51.32 33.48C51.68 32.56 52.76 31.36 51.80 30.64C50.52 29.68 49.88 31.28 49.12 32C47.24 33.72 45.52 35.60 43.68 37.36C43.20 37.80 42.48 38 41.88 38.32C41.76 37.56 41.56 36.80 41.56 36.08C41.56 35.56 41.80 35.04 41.96 34.56C42.16 33.96 42.44 33.40 42.60 32.84C42.64 32.56 42.60 32.08 42.40 31.92C42.20 31.80 41.76 31.84 41.44 31.92C41.20 31.96 41 32.20 40.80 32.32C38.16 33.76 35.64 35.36 33.48 37.44C33.24 37.68 32.72 37.64 32.32 37.72C32.36 37.40 32.24 37 32.40 36.76C33.16 35.28 34 33.84 34.84 32.44C35.24 31.76 35.88 31.16 36.12 30.44C36.28 29.88 36.24 29.08 35.96 28.52C35.56 27.72 34.80 28 34.12 28.24C30.32 29.72 27.28 32.16 24.80 35.36C24.24 36.08 23.92 37.04 23.64 37.96C23.36 38.84 23.92 39.32 24.72 39.36C25.44 39.40 25.72 39.04 25.56 38.16C25.44 37.56 25.80 36.84 26.08 36.24C27.60 33.16 30.20 31.32 33.20 29.88C33.44 29.76 33.68 29.64 33.92 29.60C34.16 29.60 34.52 29.60 34.64 29.72C34.72 29.88 34.72 30.28 34.60 30.44C33.92 31.44 33.08 32.40 32.52 33.48C31.68 35 31 36.60 30.44 38.24C30.28 38.68 30.56 39.44 30.92 39.80C31.16 40.04 31.96 39.92 32.36 39.72C33.04 39.36 33.68 38.84 34.28 38.32C35.36 37.44 36.36 36.48 37.48 35.64C38.16 35.12 38.96 34.76 39.72 34.32C39.76 35.24 39.80 36.16 39.84 37.08C39.84 37.40 39.80 37.76 39.76 38.44ZM62.04 39.08C62 39 61.92 38.96 61.88 38.92C61.76 38.76 61.64 38.64 61.48 38.52C60.72 37.96 60.36 37.56 60.28 37.16C60.20 36.76 60.40 36.24 60.96 35.44C60.96 35.40 61 35.36 61.04 35.28C61.12 35.20 61.20 35.08 61.28 34.96C61.48 34.60 61.76 34.08 61.52 33.64C61.36 33.32 61.04 33.16 60.48 33.08C59.88 33.04 59.76 32.88 59.68 32.40C59.64 32.16 59.56 31.88 59.44 31.60C59.20 31 58.88 30.40 58.16 30.40C57.88 30.40 57.60 30.48 57.16 30.64C56.72 30.80 56.24 31 55.92 31.36C54.40 33.08 53.40 34.64 52.72 36.28C52.64 36.48 52.60 36.64 52.56 36.80C52.56 36.84 52.56 36.88 52.52 36.92L52.52 36.96L52.52 37C52.48 37.92 52.76 38.72 53.28 39.28C53.72 39.72 54.32 40 54.96 40C55.44 40 55.88 39.88 56.36 39.64C56.96 39.32 57.56 38.92 58.12 38.40C58.36 38.16 58.52 38.12 58.60 38.12C58.72 38.12 58.88 38.32 58.96 38.48C59.40 39.12 59.92 39.84 60.92 39.84C60.96 39.84 60.96 39.84 61 39.84C61.24 39.84 61.48 39.76 61.64 39.68C61.76 39.64 61.84 39.60 61.88 39.60L62.40 39.44ZM58.44 34.36C58.32 36.24 57.16 37.88 55.60 38.32C55.36 38.36 55.20 38.40 55.04 38.40C55.04 38.40 55.04 38.40 55.04 38.40C54.76 38.40 54.48 38.32 54.40 37.44C54.40 37.40 54.40 37.32 54.40 37.28C54.36 37.20 54.36 37.08 54.40 37.04C55.12 35.28 55.88 33.60 57.52 32.52C57.76 32.40 57.88 32.36 57.92 32.36C58.04 32.36 58.08 32.56 58.12 32.72C58.20 33.20 58.32 33.68 58.40 34.04C58.40 34.16 58.44 34.28 58.44 34.36ZM77 13.28C76.96 13.16 76.88 13.04 76.84 12.96L76.80 12.84L76.72 12.92C76.64 12.96 76.52 13.04 76.44 13.08C76.24 13.20 76 13.32 75.92 13.52C75.20 15.28 74.52 16.88 73.96 18.44C72.80 21.60 71.40 25.36 70.08 29.04C69.96 29.48 69.80 29.80 69.60 29.80C69.48 29.80 69.28 29.72 69.08 29.56C68.68 29.28 68.28 29.12 67.84 29.12C67.36 29.12 66.84 29.28 66.28 29.64C63.44 31.36 62.44 34.28 61.72 36.84L61.68 36.88L61.72 36.92C61.76 37.08 61.80 37.24 61.84 37.44C61.92 37.80 62.04 38.20 62.16 38.60C62.52 39.64 62.96 40.12 63.60 40.12C63.96 40.12 64.32 40 64.80 39.76C65.88 39.20 66.92 38.40 67.84 37.60C68.08 37.40 68.36 37.20 68.52 37.20C68.60 37.20 68.76 37.28 68.92 37.80C69.12 38.32 69.36 38.84 69.60 39.32L69.64 39.40C69.72 39.52 69.92 39.60 70.04 39.60C70.08 39.60 70.12 39.60 70.16 39.56C70.32 39.48 70.52 39.28 70.56 39.08C70.60 38.84 70.56 38.56 70.44 38.36C69.36 36.52 70.20 34.96 71.16 33.56C71.76 32.64 72.32 31.68 72.76 30.64C74.12 27.36 74.88 23.84 75.64 20.48C76.08 18.32 76.56 16.12 77.20 13.96C77.28 13.76 77.12 13.52 77 13.28ZM73.52 23.88C73.44 24.24 73.36 24.56 73.28 24.92C72.84 26.80 72.36 28.76 71.20 30.40C71.28 28.72 71.92 27.16 72.52 25.64C72.76 25.04 73 24.40 73.24 23.76C73.24 23.76 73.36 23.68 73.40 23.68C73.40 23.68 73.44 23.64 73.44 23.64C73.44 23.68 73.44 23.68 73.48 23.68C73.48 23.76 73.56 23.84 73.52 23.88ZM69.24 31.80C68.92 34.84 67.52 37 65 38.40C64.68 38.60 64.36 38.68 64.08 38.68C64.08 38.68 64.08 38.68 64.08 38.68C63.80 38.68 63.60 38.56 63.44 38.40C63.24 38.12 63.16 37.72 63.24 37.24C63.72 34.44 65 32.24 67 30.80C67.12 30.68 67.36 30.64 67.64 30.64C67.92 30.64 68.28 30.72 68.52 30.84C68.80 30.96 69 31.32 69.12 31.60C69.16 31.68 69.20 31.76 69.24 31.80ZM80.80 17L80.76 17.04C80.76 16.96 80.80 16.84 80.80 16.76C80.92 16.12 81.08 16 81.52 16.08C83.00 16.36 84.28 17.24 85.64 17.80C86.12 17.96 86.52 18.32 86.72 18.80C86.92 19.16 86.68 19.56 86.56 19.92C86.40 20.60 86.36 21.28 86.40 22C86.44 22.48 86.44 23 86.32 23.48C85.92 25.32 85.68 27.24 85.00 29C83.96 31.72 83.56 34.60 82.52 37.32C82.48 37.40 82.52 37.52 82.48 37.60C82.44 37.96 82.84 38.36 83.20 38.36C83.76 38.36 84.24 38.16 84.40 37.64C84.84 36.32 85.32 35 85.60 33.64C86.12 31.08 87.08 28.68 87.56 26.12C88.28 24.44 88.60 22.68 88.64 20.88C88.64 20.56 89.04 20.44 89.32 20.64C89.88 21.04 90.52 21.40 90.96 21.92C92.00 23 92.96 24.16 93.88 25.32C95.68 27.68 96.76 30.32 97.12 33.24C97.24 34.36 97.40 35.44 97.48 36.52C97.84 41.04 96.24 44.76 92.72 47.60C90.24 49.68 87.36 50.96 84.04 51.32C82.28 51.48 80.68 51.24 79.12 50.48C78.76 50.32 78.40 50.12 78.04 49.92C76.20 48.96 74.48 47.76 72.84 46.40C72.56 46.16 72.20 45.96 72.08 45.56C72.00 45.04 72.48 44.88 72.64 44.56C72.76 44.36 72.52 43.92 72.28 43.88C72.20 43.88 72.08 43.80 72.00 43.80C71.12 43.92 70.24 44 69.32 44.12C69.20 44.16 69.04 44.40 69.00 44.56C69.00 44.72 69.08 44.92 69.16 45.08C69.28 45.24 69.44 45.40 69.60 45.48C70.56 45.80 71.36 46.44 72.12 47.04C73.48 48.08 74.88 49.08 76.24 50.08C77.44 51 78.76 51.68 80.20 52.12C82.24 52.76 84.28 53 86.36 52.20C86.64 52.12 86.92 52 87.20 51.92C90.48 51 93.16 49.16 95.52 46.80C96.92 45.36 97.88 43.60 98.44 41.64C98.88 40.08 98.92 38.48 98.96 36.88C99.04 35.56 98.92 34.32 98.40 33.08C98.24 32.72 98.12 32.28 98.16 31.92C98.40 30.76 97.84 29.80 97.32 28.84C96.76 27.88 96.16 27 95.84 25.92C95.76 25.64 95.56 25.40 95.36 25.16C93.96 23.36 92.52 21.56 90.88 19.96C89.00 18.12 87.04 16.48 84.60 15.44C83.12 14.84 81.60 14.32 80.24 13.52C79.72 13.20 79.12 13.04 78.52 13.08C78.32 13.08 78.12 13.16 77.92 13.16C77.68 13.24 77.40 13.60 77.48 13.84C77.52 14.04 77.56 14.24 77.64 14.40C78.36 15.40 79.24 16.20 80.24 16.84C80.40 16.96 80.64 16.96 80.80 17ZM109.00 39.08C108.96 39 108.88 38.96 108.84 38.92C108.72 38.76 108.60 38.64 108.44 38.52C107.68 37.96 107.32 37.56 107.24 37.16C107.16 36.76 107.36 36.24 107.92 35.44C107.92 35.40 107.96 35.36 108.00 35.28C108.08 35.20 108.16 35.08 108.24 34.96C108.44 34.60 108.72 34.08 108.48 33.64C108.32 33.32 108.00 33.16 107.44 33.08C106.84 33.04 106.72 32.88 106.64 32.40C106.60 32.16 106.52 31.88 106.40 31.60C106.16 31 105.84 30.40 105.12 30.40C104.84 30.40 104.56 30.48 104.12 30.64C103.68 30.80 103.20 31 102.88 31.36C101.36 33.08 100.36 34.64 99.68 36.28C99.60 36.48 99.56 36.64 99.52 36.80C99.52 36.84 99.52 36.88 99.48 36.92L99.48 36.96L99.48 37C99.44 37.92 99.72 38.72 100.24 39.28C100.68 39.72 101.28 40 101.92 40C102.40 40 102.84 39.88 103.32 39.64C103.92 39.32 104.52 38.92 105.08 38.40C105.32 38.16 105.48 38.12 105.56 38.12C105.68 38.12 105.84 38.32 105.92 38.48C106.36 39.12 106.88 39.84 107.88 39.84C107.92 39.84 107.92 39.84 107.96 39.84C108.20 39.84 108.44 39.76 108.60 39.68C108.72 39.64 108.80 39.60 108.84 39.60L109.36 39.44ZM105.40 34.36C105.28 36.24 104.12 37.88 102.56 38.32C102.32 38.36 102.16 38.40 102.00 38.40C102.00 38.40 102.00 38.40 102.00 38.40C101.72 38.40 101.44 38.32 101.36 37.44C101.36 37.40 101.36 37.32 101.36 37.28C101.32 37.20 101.32 37.08 101.36 37.04C102.08 35.28 102.84 33.60 104.48 32.52C104.72 32.40 104.84 32.36 104.88 32.36C105.00 32.36 105.04 32.56 105.08 32.72C105.16 33.20 105.28 33.68 105.36 34.04C105.36 34.16 105.40 34.28 105.40 34.36ZM118.60 30.40C118.52 30.36 118.44 30.36 118.32 30.36C118.08 30.36 117.76 30.44 117.64 30.60C117.00 31.36 116.52 31.96 116.20 32.56C115.56 33.64 114.92 34.80 114.32 35.88C113.76 36.84 113.20 37.88 112.64 38.88C112.56 39.04 112.36 39.16 112.20 39.32C112.16 39.32 112.12 39.36 112.08 39.40C112.08 39.36 112.04 39.32 112.04 39.32C111.96 39.12 111.88 38.92 111.80 38.72C111.24 37.20 111.68 35.80 112.44 34.20C112.92 33.20 113.40 32.20 113.92 31.20C114.36 30.32 114.84 29.40 115.24 28.52C116.92 25.08 117.84 21.16 118.08 16.60L118.08 16.60C118.08 16.36 118.08 16.12 118.08 15.88C118.12 15.32 118.12 14.72 118.04 14.16C118.00 13.76 117.64 13.12 117.24 13.08C117.20 13.08 117.20 13.04 117.16 13.04C116.80 13.04 116.28 13.44 116.08 13.76C115.64 14.44 115.28 15.20 115.00 15.96C113.16 21.52 111.88 26.52 111.08 31.24C110.76 33.16 110.32 35.16 108.80 36.72C108.40 37.16 108.24 37.52 108.32 37.84C108.44 38.16 108.76 38.36 109.36 38.48C110.08 38.60 110.44 38.92 110.52 39.56C110.56 39.68 110.56 39.80 110.56 39.92C110.60 40.48 110.68 41.20 111.48 41.20C111.48 41.20 111.52 41.20 111.52 41.20C112.12 41.16 112.72 40.68 113.28 40.24C113.32 40.20 113.36 40.16 113.40 40.12C113.64 39.92 113.80 39.60 113.96 39.32C114.00 39.20 114.04 39.08 114.12 38.96C114.28 38.68 114.44 38.40 114.60 38.12C114.92 37.52 115.28 36.92 115.60 36.32C115.64 36.28 115.72 36.24 115.80 36.24C115.84 36.24 115.84 36.24 115.84 36.24C115.88 36.24 115.96 36.32 115.96 36.36C116.00 36.52 116.04 36.72 116.04 36.92C116.08 37.16 116.08 37.40 116.12 37.64C116.28 38.36 116.44 39.08 116.72 39.76C116.80 39.96 117.04 40.04 117.28 40.08C117.36 40.12 117.48 40.12 117.52 40.16L117.72 40.24L117.76 40.04C117.76 39.96 117.80 39.88 117.84 39.80C117.92 39.60 118.00 39.36 117.88 39.16C116.92 37.72 117.40 36.36 117.88 34.88C117.96 34.68 118.04 34.48 118.12 34.28C118.44 33.28 118.72 32.32 118.96 31.32C119.04 31.04 118.84 30.56 118.60 30.40ZM112.88 29.68C112.96 29.32 113.00 28.96 113.08 28.60C113.24 27.60 113.44 26.60 113.72 25.64C114.48 22.92 115.36 20.20 116.20 17.56L116.28 17.32C116.32 17.16 116.48 17 116.64 16.84C116.64 16.80 116.64 16.80 116.64 16.80C116.68 16.96 116.72 17.16 116.76 17.32L116.76 17.60C116.76 17.60 116.76 17.60 116.76 17.64C116.56 21.32 115.60 24.88 113.72 28.84C113.56 29.16 113.40 29.48 113.20 29.72C113.16 29.76 113.04 29.80 112.96 29.84C112.96 29.84 112.92 29.84 112.92 29.84C112.92 29.80 112.88 29.72 112.88 29.68ZM119.44 35C119.60 36.48 119.60 37.60 119.84 38.60C120.16 39.80 121.04 40.24 122.12 39.84C122.60 39.68 123.00 39.40 122.36 38.80C120.20 36.76 120.40 34.64 122.88 32.88C125.40 31.12 127.40 28.80 128.76 26.08C130.28 22.88 131.04 19.44 131.48 15.92C131.52 15.36 131.56 14.76 131.44 14.20C131.20 12.96 130.20 12.64 129.28 13.48C128.52 14.12 127.84 14.88 127.36 15.72C125.40 19.40 123.12 22.96 121.80 26.96C121.24 28.60 120.68 30.20 120.16 31.88C119.84 33 119.64 34.20 119.44 35ZM130.48 16.12C129.56 20.80 128.48 25.44 125.12 29.12C124.56 29.72 123.84 30.16 123.16 30.60C122.92 30.76 122.56 30.68 122.28 30.72C122.28 30.40 122.28 30.08 122.36 29.80C123.80 25.32 126.04 21.20 128.32 17.12C128.56 16.64 128.92 16.16 129.32 15.72C129.48 15.52 129.84 15.40 130.08 15.24C130.24 15.52 130.36 15.80 130.48 16.12ZM133.88 39.08C133.84 39 133.76 38.96 133.72 38.92C133.60 38.76 133.48 38.64 133.32 38.52C132.56 37.96 132.20 37.56 132.12 37.16C132.04 36.76 132.24 36.24 132.80 35.44C132.80 35.40 132.84 35.36 132.88 35.28C132.96 35.20 133.04 35.08 133.12 34.96C133.32 34.60 133.60 34.08 133.36 33.64C133.20 33.32 132.88 33.16 132.32 33.08C131.72 33.04 131.60 32.88 131.52 32.40C131.48 32.16 131.40 31.88 131.28 31.60C131.04 31 130.72 30.40 130.00 30.40C129.72 30.40 129.44 30.48 129.00 30.64C128.56 30.80 128.08 31 127.76 31.36C126.24 33.08 125.24 34.64 124.56 36.28C124.48 36.48 124.44 36.64 124.40 36.80C124.40 36.84 124.40 36.88 124.36 36.92L124.36 36.96L124.36 37C124.32 37.92 124.60 38.72 125.12 39.28C125.56 39.72 126.16 40 126.80 40C127.28 40 127.72 39.88 128.20 39.64C128.80 39.32 129.40 38.92 129.96 38.40C130.20 38.16 130.36 38.12 130.44 38.12C130.56 38.12 130.72 38.32 130.80 38.48C131.24 39.12 131.76 39.84 132.76 39.84C132.80 39.84 132.80 39.84 132.84 39.84C133.08 39.84 133.32 39.76 133.48 39.68C133.60 39.64 133.68 39.60 133.72 39.60L134.24 39.44ZM130.28 34.36C130.16 36.24 129.00 37.88 127.44 38.32C127.20 38.36 127.04 38.40 126.88 38.40C126.88 38.40 126.88 38.40 126.88 38.40C126.60 38.40 126.32 38.32 126.24 37.44C126.24 37.40 126.24 37.32 126.24 37.28C126.20 37.20 126.20 37.08 126.24 37.04C126.96 35.28 127.72 33.60 129.36 32.52C129.60 32.40 129.72 32.36 129.76 32.36C129.88 32.36 129.92 32.56 129.96 32.72C130.04 33.20 130.16 33.68 130.24 34.04C130.24 34.16 130.28 34.28 130.28 34.36ZM139.16 37.92C139.16 39.84 140.00 40.40 141.24 39.76C141.88 39.40 142.36 38.84 142.96 38.40C143.16 38.24 143.44 38.12 143.68 38C143.76 38.24 143.88 38.48 143.92 38.76C144.00 39.16 143.92 39.64 144.08 40C144.24 40.36 144.60 40.60 144.88 40.92C145.00 40.60 145.20 40.28 145.24 40C145.32 38.52 145.76 37.16 146.68 36C146.96 35.60 147.08 35.08 147.24 34.60C147.52 33.88 148.20 33.04 147.24 32.52C146.32 32.04 146.16 33.16 145.72 33.64C144.40 35.16 143.12 36.72 141.80 38.24C141.56 38.48 141.04 38.48 140.64 38.60C140.64 38.20 140.52 37.76 140.64 37.44C141.28 35.92 142.04 34.44 142.68 32.92C143.12 31.88 142.92 30.92 142.32 30.56C141.52 30.04 141.00 30.76 140.36 31.04C140.12 31.16 139.88 31.36 139.68 31.56C137.80 33.44 135.88 35.28 134.04 37.20C133.68 37.52 133.40 38 133.28 38.48C133.24 38.72 133.52 39.08 133.72 39.36C133.76 39.40 134.20 39.20 134.36 39.04C135.80 37.36 137.16 35.60 138.64 33.96C139.28 33.24 140.24 32.80 141.04 32.24C141.52 33.36 140.64 34.08 140.32 35C139.88 36.12 139.44 37.24 139.16 37.92Z" fill="black"></path></svg>